<svg xmlns="http://www.w3.org/2000/svg" viewBox="0 0 440 130"><defs><mask id="mask" x="76.7" y="4.96" width="360.83" height="119.45" maskUnits="userSpaceOnUse"><g id="mask-2"><path id="path-1" class="cls-1" d="M76.7 124.4h360.83V4.96H76.7V124.4z"/></g></mask><mask id="mask-9" x="76.7" y="4.96" width="360.83" height="119.45" maskUnits="userSpaceOnUse"><g id="mask-2-10" data-name="mask-2"><path id="path-1-9" data-name="path-1" class="cls-1" d="M76.7 124.4h360.83V4.96H76.7V124.4z"/></g></mask><style>.cls-1{fill:#fff;fill-rule:evenodd}.cls-3{mask:url(#mask)}</style></defs><g id="Layer_2" data-name="Layer 2"><g id="Layer_1-2" data-name="Layer 1"><g id="h_beyaz_saydam" data-name="h beyaz saydam"><path id="Rectangle" fill="none" d="M0 0h440v130H0z"/><path id="Fill-1" class="cls-1" d="M45.43 4.33v27.3H22.68V4.33H0v78.55h22.68V51.71h22.75v31.17h22.66V4.33H45.43z"/><g id="Group-16"><g class="cls-3"><path id="Fill-2" class="cls-1" d="M110.08 20.48h18.38V6.05h-18.38zm-25.46 0H103V6.05H84.62zm51.84 63.85h-21.15V77h-.22q-5.84 8.69-18.71 8.79a20.42 20.42 0 01-13.62-4.88Q76.81 76 76.7 66.2V26.62h21.44V56.9a18.81 18.81 0 001.32 8.16c.91 2.14 3 3.2 6.28 3.2A9.71 9.71 0 00112 66a8.36 8.36 0 002.34-3.42 18.5 18.5 0 00.68-5.49V26.62h21.46z"/></g><g class="cls-3"><path id="Fill-4" class="cls-1" d="M142.59 26.62h20.61v9.23h.21a21.3 21.3 0 016.41-8 15.66 15.66 0 019.43-2.66 23.43 23.43 0 016.31.86v19.46a20.13 20.13 0 00-3.39-1.09 30.67 30.67 0 00-5.09-.33q-12.94-.21-13.08 17.44v22.8h-21.41z"/></g><g class="cls-3"><path id="Fill-5" class="cls-1" d="M192.33 26.62h20.61v9.23h.21a21.23 21.23 0 016.42-8 15.62 15.62 0 019.43-2.64 23.41 23.41 0 016.3.86v19.44a20.13 20.13 0 00-3.39-1.09 30.58 30.58 0 00-5.09-.33q-12.94-.21-13 17.44v22.8h-21.49z"/></g><g class="cls-3"><path id="Fill-6" class="cls-1" d="M240.27 84.32h21.44v-57.7h-21.44zm0-63.95h21.44V5h-21.44z"/></g><g class="cls-3"><path id="Fill-7" class="cls-1" d="M312.56 79.88q-1.15 3.9-2.81 8.25a37.92 37.92 0 01-4.23 7.76 17.71 17.71 0 01-10.34 6.24 68 68 0 01-12.34.87h-9.75V85.42h5.14c1.21 0 2.43 0 3.67-.11a9.75 9.75 0 003.07-.43 3.72 3.72 0 001.64-1.52 6.66 6.66 0 00.49-2.83 20.66 20.66 0 00-1.26-5.1q-1.3-3.75-3.12-8.42-3.83-10.14-5.42-13.79l-9.67-26.6h23l9 33.09h.22L309 26.62h22.2z"/></g><g class="cls-3"><path id="Fill-8" class="cls-1" d="M369.48 49a10.08 10.08 0 00-2.78-6.94 9.74 9.74 0 00-7.29-2.78q-10.25.1-11.83 9.72zm-22 11.4a13.83 13.83 0 003.34 8c1.79 2.18 4.44 3.26 7.95 3.26a13.24 13.24 0 005.42-1.14 7.71 7.71 0 003.89-3h20.76a25.38 25.38 0 01-11.54 13.82 36.38 36.38 0 01-18.08 4.45q-14.09-.11-22.9-7.92-9.21-7.77-9.32-22.21.12-13 8.39-21.71 8.24-8.54 22-8.74 33 .43 32.68 35.23z"/></g><g class="cls-3"><path id="Fill-9" class="cls-1" d="M422.67 26.62h11.53v13.57h-11.53v20.18c-.08 2.65.37 4.57 1.32 5.77s2.7 1.9 5.32 1.9a35.86 35.86 0 004.89-.32v16.61q-6.72.23-13.77.65a40.82 40.82 0 01-6.72-.54 21.36 21.36 0 01-6.19-2.22 12.21 12.21 0 01-4.44-5.2 19.42 19.42 0 01-1.86-9.19V40.19h-9.59V26.62h9.59V9.08h21.45z"/></g><g class="cls-3"><path id="Fill-10" class="cls-1" d="M322.61 104.57a5.91 5.91 0 00-3.93-1.23 7.29 7.29 0 00-3.51.77 6.29 6.29 0 00-2.26 2 8.38 8.38 0 00-1.21 2.92 15.38 15.38 0 00-.37 3.42 12.8 12.8 0 00.39 3.17 8.41 8.41 0 001.21 2.74 6.07 6.07 0 002.15 1.93 6.49 6.49 0 003.15.72 6.36 6.36 0 004.49-1.49 6.77 6.77 0 002-4.21h4a10.83 10.83 0 01-3.26 6.7 10.31 10.31 0 01-7.15 2.35 12.23 12.23 0 01-4.77-.86 9.14 9.14 0 01-3.54-2.4 10.56 10.56 0 01-2.1-3.78 15.44 15.44 0 01-.71-4.83 16.89 16.89 0 01.69-4.91 11 11 0 012.08-4 9.6 9.6 0 013.49-2.67 11.46 11.46 0 014.88-1 14.26 14.26 0 013.77.48 9.09 9.09 0 013.1 1.48 8 8 0 012.22 2.51 9.28 9.28 0 011.09 3.6h-4a5.89 5.89 0 00-1.92-3.44"/></g><g mask="url(#mask-9)"><path id="Fill-11" class="cls-1" d="M336.42 116a7.86 7.86 0 001.58 2.77 7 7 0 002.34 1.7 7.31 7.31 0 002.86.58 7.22 7.22 0 002.85-.58 7.09 7.09 0 002.36-1.7A7.84 7.84 0 00350 116a12.82 12.82 0 000-7.56 8.21 8.21 0 00-1.57-2.79 6.87 6.87 0 00-2.36-1.72 7.06 7.06 0 00-2.85-.59 7.14 7.14 0 00-2.86.59 6.8 6.8 0 00-2.34 1.72 8.23 8.23 0 00-1.58 2.79 12.82 12.82 0 000 7.56m-3.95-8.6a11 11 0 012.19-3.9 10.36 10.36 0 013.61-2.6 13.19 13.19 0 019.88 0 10.37 10.37 0 013.59 2.6 10.82 10.82 0 012.19 3.9 15.35 15.35 0 01.73 4.82 15.18 15.18 0 01-.73 4.8 10.85 10.85 0 01-2.19 3.87 10.1 10.1 0 01-3.59 2.59 13.59 13.59 0 01-9.88 0 10.08 10.08 0 01-3.61-2.59 11 11 0 01-2.19-3.87 15.18 15.18 0 01-.73-4.8 15.35 15.35 0 01.73-4.82"/></g><g class="cls-3"><path id="Fill-12" class="cls-1" d="M362.88 100.49v3.44h.12a9.24 9.24 0 0111.6-3.08 5.13 5.13 0 012.51 3.08 8.15 8.15 0 013.09-2.93 8.84 8.84 0 014.28-1 12.22 12.22 0 013.21.39 6.86 6.86 0 012.47 1.2 5.6 5.6 0 011.6 2.1 7.71 7.71 0 01.57 3.11v17.17h-3.88v-15.42a11.79 11.79 0 00-.18-2 4.2 4.2 0 00-.69-1.66 3.37 3.37 0 00-1.39-1.11 5.66 5.66 0 00-2.31-.41 6.15 6.15 0 00-4.52 1.63 5.85 5.85 0 00-1.65 4.35v14.59h-3.87v-15.39a9.64 9.64 0 00-.21-2.08 4.49 4.49 0 00-.71-1.65 3.21 3.21 0 00-1.34-1.09 5.23 5.23 0 00-2.17-.39 5.84 5.84 0 00-2.9.68 6.56 6.56 0 00-2 1.64 6.49 6.49 0 00-1.09 2 5.51 5.51 0 00-.34 1.7v14.59h-3.89v-23.46z"/></g><g class="cls-3"><path id="Fill-13" class="cls-1" d="M399.04 123.91h5.07v-5.03h-5.07v5.03z"/></g><g class="cls-3"><path id="Fill-14" class="cls-1" d="M421 100.49v3.4h-4.71v14.53a4 4 0 00.12 1.09 1.15 1.15 0 00.43.64 1.87 1.87 0 00.89.29 11.89 11.89 0 001.48.07H421v3.4h-3a13.53 13.53 0 01-2.57-.21 3.75 3.75 0 01-1.74-.74 3.23 3.23 0 01-1-1.54 9 9 0 01-.32-2.63v-14.9h-4v-3.4h4v-7h3.88v7z"/></g><g class="cls-3"><path id="Fill-15" class="cls-1" d="M428.76 100.49v4.94h.09a10.58 10.58 0 013.47-4.22 8.91 8.91 0 015.21-1.27V104a11.13 11.13 0 00-4 .63 6.29 6.29 0 00-2.65 1.87 7.54 7.54 0 00-1.46 3 15.62 15.62 0 00-.46 4v10.42h-3.88v-23.43z"/></g></g></g></g></g></svg>